<svg width="20" height="24" viewBox="0 0 20 24" fill="none" xmlns="http://www.w3.org/2000/svg">
<path d="M17.949 5.536L14.465 2.05C13.142 0.728 11.384 0 9.515 0H5C2.243 0 0 2.243 0 5V19C0 21.757 2.243 24 5 24H15C17.757 24 20 21.757 20 19V10.485C20 8.614 19.271 6.858 17.949 5.536ZM16.535 6.951C16.85 7.266 17.099 7.625 17.316 8.001H13C12.448 8.001 12 7.552 12 7.001V2.684C12.376 2.901 12.735 3.15 13.051 3.465L16.535 6.951ZM18 19.001C18 20.655 16.654 22.001 15 22.001H5C3.346 22.001 2 20.655 2 19.001V5C2 3.346 3.346 2 5 2H9.515C9.68 2 9.838 2.032 10 2.047V7C10 8.654 11.346 10 13 10H17.953C17.969 10.162 18 10.32 18 10.485V19.001ZM16 18.001C16 18.553 15.553 19.001 15 19.001H5C4.447 19.001 4 18.553 4 18.001C4 17.449 4.447 17.001 5 17.001H15C15.553 17.001 16 17.449 16 18.001ZM5 9C5 7.895 5.895 7 7 7C8.105 7 9 7.895 9 9C9 10.105 8.105 11 7 11C5.895 11 5 10.105 5 9ZM4.441 14.794C4.003 14.459 3.92 13.831 4.255 13.392C4.364 13.249 5.368 12 7.025 12C8.682 12 9.684 13.25 9.794 13.392C10.13 13.83 10.047 14.458 9.608 14.794C9.426 14.933 9.212 15 9.001 15C8.7 15 8.403 14.865 8.206 14.608C8.206 14.608 7.709 14 7.025 14C6.341 14 5.848 14.602 5.843 14.608C5.507 15.047 4.881 15.131 4.441 14.794Z" fill="#4D4D4D"/>
</svg>
