<svg width="20" height="20" viewBox="0 0 20 20" fill="none" xmlns="http://www.w3.org/2000/svg">
<path d="M9.7505 5.79741C10.0638 5.65253 10.2003 5.28109 10.0554 4.9678C9.91058 4.6545 9.53916 4.51797 9.22583 4.66285C7.58841 5.42007 6.32642 6.92573 5.74976 8.74766C5.64559 9.07674 5.82793 9.42799 6.15702 9.53216C6.48611 9.63633 6.83732 9.45399 6.94148 9.12491C7.42275 7.60437 8.46258 6.393 9.7505 5.79741Z" fill="white"/>
<path fill-rule="evenodd" clip-rule="evenodd" d="M11.988 1.44038C10.714 0.908546 9.286 0.908546 8.01198 1.44038C4.29444 2.99223 1.875 6.68454 1.875 10.7733V10.9938C1.875 15.3791 5.35457 18.9582 9.67625 18.9582H10.3237C14.6454 18.9582 18.125 15.3791 18.125 10.9938V10.7733C18.125 6.68454 15.7056 2.99223 11.988 1.44038ZM8.4935 2.59391C9.45942 2.1907 10.5406 2.1907 11.5065 2.59391C14.7468 3.94657 16.875 7.176 16.875 10.7733V10.9938C16.875 14.7154 13.9288 17.7082 10.3237 17.7082H9.67625C6.07125 17.7082 3.125 14.7154 3.125 10.9938V10.7733C3.125 7.176 5.25313 3.94657 8.4935 2.59391Z" fill="white"/>
</svg>
