<svg width="32" height="32" viewBox="0 0 32 32" fill="none" xmlns="http://www.w3.org/2000/svg">
<rect x="0.5" y="0.5" width="31" height="31" rx="15.5" fill="white"/>
<rect x="0.5" y="0.5" width="31" height="31" rx="15.5" stroke="#FBBB00"/>
<path d="M25.2333 18.7752L18.5 8.14183C17.9333 7.32516 16.9917 6.8335 16 6.8335C15.0083 6.8335 14.0667 7.31683 13.475 8.16683L6.77499 18.7585C5.92499 19.9752 5.76666 21.4335 6.35833 22.5585C6.94166 23.6835 8.16666 24.3252 9.69999 24.3252H22.3C23.8417 24.3252 25.0583 23.6835 25.6417 22.5585C26.225 21.4335 26.0667 19.9835 25.2333 18.7752ZM15.1667 11.8335C15.1667 11.3752 15.5417 11.0002 16 11.0002C16.4583 11.0002 16.8333 11.3752 16.8333 11.8335V16.8335C16.8333 17.2918 16.4583 17.6668 16 17.6668C15.5417 17.6668 15.1667 17.2918 15.1667 16.8335V11.8335ZM16 21.8335C15.3083 21.8335 14.75 21.2752 14.75 20.5835C14.75 19.8918 15.3083 19.3335 16 19.3335C16.6917 19.3335 17.25 19.8918 17.25 20.5835C17.25 21.2752 16.6917 21.8335 16 21.8335Z" fill="#FBBB00"/>
</svg>
