<svg width="40" height="40" viewBox="0 0 40 40" fill="none" xmlns="http://www.w3.org/2000/svg">
<rect width="40" height="40" rx="20" fill="white" fill-opacity="0.1"/>
<path d="M27.3125 19.0463C26.6249 18.2462 26.3126 17.5529 26.3126 16.375V15.9745C26.3126 14.4396 25.958 13.4506 25.1873 12.4616C23.9993 10.9257 21.9994 10 20.0416 10H19.9584C18.0417 10 16.1045 10.8832 14.896 12.3567C14.0831 13.3656 13.6875 14.397 13.6875 15.9745V16.375C13.6875 17.5529 13.3956 18.2462 12.6875 19.0463C12.1665 19.6357 12 20.3933 12 21.2132C12 22.034 12.2703 22.8114 12.8129 23.4434C13.521 24.2009 14.5209 24.6845 15.5424 24.7686C17.0212 24.9367 18.5 25 20.0005 25C21.5 25 22.9788 24.8942 24.4585 24.7686C25.4791 24.6845 26.4791 24.2009 27.1871 23.4434C27.7288 22.8114 28 22.034 28 21.2132C28 20.3933 27.8335 19.6357 27.3125 19.0463Z" fill="white"/>
<path d="M22.0838 27.0843C21.5688 26.9719 18.4312 26.9719 17.9162 27.0843C17.476 27.1881 17 27.4296 17 27.9594C17.0256 28.4648 17.3153 28.9108 17.7166 29.1937L17.7156 29.1948C18.2346 29.608 18.8437 29.8707 19.4815 29.965C19.8213 30.0127 20.1673 30.0106 20.5195 29.965C21.1562 29.8707 21.7654 29.608 22.2844 29.1948L22.2834 29.1937C22.6847 28.9108 22.9744 28.4648 23 27.9594C23 27.4296 22.5239 27.1881 22.0838 27.0843Z" fill="white"/>
</svg>
