<svg width="24" height="24" viewBox="0 0 24 24" fill="none" xmlns="http://www.w3.org/2000/svg">
<g clip-path="url(#clip0_13_761)">
<path d="M22.083 6.56393L15.083 1.07993C13.268 -0.342072 10.731 -0.342072 8.916 1.07993L1.917 6.56393C0.699 7.51693 0 8.95193 0 10.4999V18.9999C0 21.7569 2.243 23.9999 5 23.9999H19C21.757 23.9999 24 21.7569 24 18.9999V10.4999C24 8.95193 23.301 7.51793 22.083 6.56393ZM22 18.9999C22 20.6539 20.654 21.9999 19 21.9999H5C3.346 21.9999 2 20.6539 2 18.9999V10.4999C2 9.57093 2.419 8.71093 3.15 8.13893L10.15 2.65493C10.695 2.22793 11.347 2.01493 12 2.01493C12.653 2.01493 13.306 2.22793 13.85 2.65493L20.85 8.13893C21.581 8.71093 22 9.57193 22 10.4999V18.9999Z" fill="url(#paint0_linear_13_761)"/>
<path d="M8.46503 16.5791C8.07403 16.9701 8.07403 17.6021 8.46503 17.9931C10.414 19.9421 13.587 19.9421 15.536 17.9931C15.927 17.6021 15.927 16.9701 15.536 16.5791C15.145 16.1881 14.513 16.1881 14.122 16.5791C12.952 17.7491 11.049 17.7491 9.87904 16.5791C9.68404 16.3841 9.42803 16.2861 9.17203 16.2861C8.91603 16.2861 8.66003 16.3841 8.46503 16.5791Z" fill="url(#paint1_linear_13_761)"/>
</g>
<defs>
<linearGradient id="paint0_linear_13_761" x1="12" y1="0.0134277" x2="12" y2="23.9999" gradientUnits="userSpaceOnUse">
<stop stop-color="#072868"/>
<stop offset="1" stop-color="#0E4FCE"/>
</linearGradient>
<linearGradient id="paint1_linear_13_761" x1="12.0005" y1="19.4548" x2="12.0005" y2="16.2858" gradientUnits="userSpaceOnUse">
<stop stop-color="#072868"/>
<stop offset="1" stop-color="#0E4FCE"/>
</linearGradient>
<clipPath id="clip0_13_761">
<rect width="24" height="24" fill="white"/>
</clipPath>
</defs>
</svg>
