<svg width="20" height="20" viewBox="0 0 20 20" fill="none" xmlns="http://www.w3.org/2000/svg">
<path d="M17.175 9.02476C16.5333 8.25806 15.7083 7.75806 14.75 7.54139C14.5333 6.57472 14.1583 5.74139 13.6083 5.04972C13.5917 5.02472 13.575 4.99972 13.5583 4.98306C11.725 2.76639 8.72501 2.77472 6.70002 3.92472C4.96669 4.91639 3.49168 7.00806 4.26668 9.99142C2.49168 10.4248 1.67502 11.9748 1.67502 13.3748C1.67502 14.9414 2.70002 16.6998 4.98335 16.8664H13.6H13.6333C14.8167 16.8664 15.95 16.4248 16.825 15.6248C18.9167 13.7748 18.6417 10.7581 17.175 9.02476Z" fill="white"/>
<path d="M18.1333 7.28314C18.1333 7.56647 18.1 7.84147 18.0167 8.10814C17.4083 7.39981 16.6333 6.8748 15.775 6.5498C15.5083 5.71647 15.125 4.9748 14.625 4.3248C14.6 4.29147 14.575 4.25814 14.5417 4.21647C14.7 4.18314 14.8667 4.1748 15.025 4.1748C16.7417 4.1748 18.1333 5.56647 18.1333 7.28314Z" fill="white"/>
</svg>
