<svg width="20" height="20" viewBox="0 0 20 20" fill="none" xmlns="http://www.w3.org/2000/svg">
<path fill-rule="evenodd" clip-rule="evenodd" d="M11.0117 4.06434C7.95147 4.90692 4.76613 6.03844 3.37782 6.8398C3.0462 7.03124 2.97297 7.15895 2.9599 7.18707C2.96607 7.20865 2.99022 7.26049 3.07447 7.34984C3.22888 7.51362 3.50093 7.7057 3.89291 7.91208C4.2765 8.11405 4.73802 8.31075 5.23867 8.49691C6.23975 8.86908 7.35488 9.18341 8.22682 9.40583C8.66125 9.51658 9.03208 9.60383 9.29383 9.66316C9.42458 9.69283 9.528 9.7155 9.59833 9.73075L9.67833 9.74783L9.69825 9.752L9.70408 9.75325C9.94817 9.80375 10.1392 9.9945 10.1897 10.2387L10.1909 10.2447L10.1951 10.2647L10.2122 10.3446C10.2274 10.4149 10.2501 10.5183 10.2797 10.6492C10.3392 10.9108 10.4263 11.2817 10.5371 11.7161C10.7595 12.588 11.0739 13.7032 11.446 14.7042C11.6322 15.2049 11.8288 15.6664 12.0308 16.05C12.2372 16.442 12.4293 16.714 12.5931 16.8684C12.6824 16.9527 12.7342 16.9768 12.7558 16.983C12.784 16.9699 12.9117 16.8967 13.1031 16.5651C13.9045 15.1768 15.036 11.9914 15.8786 8.93125C16.297 7.41152 16.6364 5.9506 16.8247 4.79123C16.919 4.21014 16.9729 3.71984 16.9827 3.34288C16.9867 3.1926 16.9834 3.06815 16.9747 2.96818C16.8747 2.95952 16.7503 2.9562 16.6 2.96014C16.2231 2.97 15.7327 3.02389 15.1517 3.11825C13.9923 3.30652 12.5314 3.64592 11.0117 4.06434ZM12.7677 16.9846C12.7677 16.9846 12.7651 16.9852 12.7593 16.9839C12.7647 16.9834 12.7677 16.9846 12.7677 16.9846ZM9.05275 10.8902C9.04108 10.8876 9.02933 10.8849 9.01725 10.8822C8.74675 10.8208 8.36491 10.7311 7.91787 10.617C7.02685 10.3897 5.86362 10.0628 4.80309 9.6685C4.27294 9.47141 3.75786 9.25366 3.31056 9.01816C2.87163 8.78708 2.45851 8.51866 2.16497 8.20735C1.87243 7.89706 1.61266 7.44444 1.74138 6.90342C1.86082 6.40145 2.27104 6.03539 2.7529 5.75722C4.29137 4.86918 7.61276 3.70366 10.6798 2.85919C12.2237 2.4341 13.7317 2.08247 14.9513 1.88441C15.5597 1.78561 16.1115 1.72249 16.5673 1.71057C16.7952 1.7046 17.0115 1.71104 17.2056 1.73599C17.3922 1.75999 17.5987 1.80584 17.7817 1.90333C17.8914 1.96174 17.9812 2.0515 18.0396 2.16117C18.1371 2.34423 18.1829 2.55072 18.2069 2.73732C18.2319 2.93144 18.2383 3.14765 18.2323 3.37558C18.2204 3.83139 18.1573 4.38316 18.0585 4.99159C17.8604 6.21125 17.5088 7.71914 17.0837 9.26308C16.2392 12.3302 15.0737 15.6515 14.1857 17.19C13.9076 17.6718 13.5415 18.0821 13.0395 18.2015C12.4985 18.3302 12.0458 18.0705 11.7356 17.7779C11.4242 17.4844 11.1558 17.0712 10.9247 16.6323C10.6892 16.1851 10.4715 15.67 10.2744 15.1398C9.88008 14.0793 9.55317 12.9161 9.32592 12.0251C9.21183 11.578 9.12208 11.1962 9.06075 10.9257C9.058 10.9136 9.05533 10.9018 9.05275 10.8902ZM2.95835 7.17517C2.95835 7.17517 2.95947 7.17813 2.95899 7.18357C2.95765 7.17781 2.95835 7.17517 2.95835 7.17517Z" fill="white"/>
<path fill-rule="evenodd" clip-rule="evenodd" d="M17.9299 2.01314C18.174 2.25722 18.174 2.65294 17.9299 2.89702L10.0196 10.8074C9.7755 11.0514 9.37975 11.0514 9.13566 10.8074C8.89158 10.5633 8.89158 10.1675 9.13566 9.92344L17.046 2.01314C17.2901 1.76906 17.6858 1.76906 17.9299 2.01314Z" fill="white"/>
</svg>
